inDegrees=yes
name=ik_Xsens
DataType=double
version=3
OpenSimVersion=4.4-2022-07-23-0e9fedc
endheader
time	pelvis_tilt	pelvis_list	pelvis_rotation	pelvis_tx	pelvis_ty	pelvis_tz	hip_flexion_r	hip_adduction_r	hip_rotation_r	knee_angle_r	knee_angle_r_beta	ankle_angle_r	subtalar_angle_r	mtp_angle_r	hip_flexion_l	hip_adduction_l	hip_rotation_l	knee_angle_l	knee_angle_l_beta	ankle_angle_l	subtalar_angle_l	mtp_angle_l	lumbar_extension	lumbar_bending	lumbar_rotation	arm_flex_r	arm_add_r	arm_rot_r	elbow_flex_r	pro_sup_r	wrist_flex_r	wrist_dev_r	arm_flex_l	arm_add_l	arm_rot_l	elbow_flex_l	pro_sup_l	wrist_flex_l	wrist_dev_l
41.91666666666666	0	0	0	0	0.93	0	0	0	0	1.756589211482538e-40	0	0	0	0	0	0	0	1.756589211482538e-40	0	0	0	0	0	0	0	34.25207258143909	11.72120339555114	59.45230927917238	-21.19219188886697	-45.29951447725626	0	0	62.77774832939967	40.46180664162726	23.09926352240193	-58.13223340392256	1.262160552522663	0	0
41.93333333333333	0	0	0	0	0.93	0	0	0	0	0	0	0	0	0	0	0	0	0	0	0	0	0	0	0	0	35.66459110202531	12.28110155594855	58.08392656401477	-22.92092364776003	-43.62874715129763	0	0	62.45373511466276	40.85287138334579	22.791809697861	-57.03664112453582	0.216278562756601	0	0
41.95	0	0	0	0	0.93	0	0	0	0	0	-6.815275293287137e-42	0	0	0	0	0	0	0	6.815275293287137e-42	0	0	0	0	0	0	39.63405170026219	13.29197684784556	53.57683744636515	-27.9300801824301	-38.12096605374953	0	0	62.10871546141497	41.2365903436552	22.47269508081851	-56.30605874610758	-4.01033862110901	0	0
41.96666666666667	0	0	0	0	0.93	0	0	0	0	1.423354351701362e-40	0	0	0	0	0	0	0	0	1.283342376407026e-42	0	0	0	0	0	0	47.33035248185504	14.16666577330862	45.40683900158258	-37.36778516790591	-27.83319246117711	0	0	61.9514543438554	41.45748922584466	22.09540181029172	-55.92736332775102	-6.191462178095731	0	0
41.98333333333333	0	0	0	0	0.93	0	0	0	0	1.813903462572353e-39	2.937192740912458e-42	0	0	0	0	0	0	7.70819271573436e-40	0	0	0	0	0	0	0	54.31398062467636	13.81855055593127	39.13100169300924	-45.50427464115211	-19.13412816026766	0	0	61.82696953660528	41.61209479717567	22.03834786383277	-55.66020256901657	-7.298499498175649	0	0
42	0	0	0	0	0.93	0	0	0	0	0	6.901183630159956e-41	0	0	0	0	0	0	0	-1.146591560143829e-40	0	0	0	0	0	0	70.40943852024427	9.476078640349494	27.95391251173127	-63.90943864825137	0.5697531368634955	0	0	61.73452985650825	41.63684002643883	22.16838871396721	-54.97554940594276	-11.6066551415285	0	0
42.01666666666667	2.050161197061881e-27	-4.451336223457624e-27	7.535007890406863e-28	-7.007436013638693e-27	0.93	-2.759382198351997e-25	3.879409832270647e-32	-6.7629547435221e-24	0	5.247977644989367e-18	9.156584009434617e-20	2.546140884447106e-21	-5.420702024962222e-21	-1.163980195093062e-27	-1.369577931358942e-21	1.324064391507752e-28	2.520489391017462e-21	0	-1.31789934482091e-19	-1.275266203118656e-22	6.367446051738433e-27	8.944560417683743e-28	9.568455727820248e-28	-1.905853013520715e-27	9.262657730632351e-24	81.45719545790129	4.309201940382413	23.06648190438164	-76.73940096603833	14.31053716139906	-2.29865425932022e-26	5.261563898293456e-27	61.74735933341675	41.73504668837445	21.89990608248105	-55.41198020230896	-14.03078203926923	2.273128197807966e-25	4.41340531968533e-26
42.03333333333333	-3.555587734751352e-28	2.451020715722645e-24	-2.776929487509e-27	-6.311337586681667e-22	0.93	-9.4039548065783e-38	-1.256325425590193e-19	-1.933615632216224e-20	0	2.905432927636435e-15	5.070939811933243e-17	-1.646194628282214e-21	-2.40001250308546e-20	8.966179323824607e-25	-1.943467943396757e-22	3.908516549995147e-26	1.383465179323124e-18	2.907302193229989e-15	5.074179797767794e-17	-4.319245281452298e-18	1.718270140890049e-25	-2.522375306990042e-25	-3.555587734751352e-28	-1.220926878111114e-23	7.910465577212145e-24	89.06840251625202	0.1368445017545595	20.78391753311703	-85.60408972072928	23.70797326153071	-5.258148417600025e-25	2.459443843733715e-23	61.8133388480251	41.73202508799555	21.65002407781266	-56.12239260044579	-13.73468241143694	2.198549636413598e-22	5.584155350978389e-21
42.05	0	0	0	0	0.93	0	0	0	0	0	-1.188417316399317e-40	0	0	0	0	0	0	0	-4.304254911057421e-41	0	0	0	0	0	0	91.9515193345042	-1.428447668257294	19.9234531902398	-88.84675204936275	27.07597239572621	0	0	62.05001621524352	41.58276524671398	21.33151132196228	-57.89131366830617	-9.582386528012284	0	0
42.06666666666666	0	0	0	0	0.93	0	0	0	0	0	-1.041975911009676e-41	0	0	0	0	0	0	0	-1.041975911009676e-41	0	0	0	0	0	0	93.66109886758109	-2.035467181736851	18.97427794692632	-90.73131085275097	28.67661259221584	0	0	62.18062435495802	41.38996679320168	21.42645380927209	-58.67049320375742	-7.894521455483965	0	0
42.08333333333334	0	0	0	0	0.93	0	0	0	0	0	0	0	0	0	0	0	0	0	0	0	0	0	0	0	0	92.42278181296345	-0.9685967330318073	18.52590794105361	-89.34824906975153	26.86713017948717	0	0	62.37741233299376	41.17363548001195	21.61855092636298	-59.44288089874341	-6.93709262181384	0	0
42.1	-9.659298022987631e-26	-4.186412791980491e-22	-2.460803855576728e-25	2.51276426420111e-24	0.93	3.525615304200006e-23	0	5.938604185573975e-23	-7.80142783110673e-33	0	6.333966666532878e-18	8.787233463402623e-16	2.031958730001599e-18	3.189110590531489e-20	-2.704093320595742e-26	8.888220378360998e-23	3.374068258995774e-24	0	6.335250948444397e-18	-4.94324130642022e-15	-1.27879494902629e-20	-5.736919851332096e-21	-5.686932241761411e-17	-4.408979023130544e-17	1.819359516358068e-17	88.77984980262841	1.345608664277727	18.93772359114348	-85.25516032858806	22.38572476974837	-1.930735703132873e-20	4.982940582818916e-16	62.52263416116364	41.01089960405822	21.78971383356993	-59.78383507736743	-6.768817330453193	-7.529517276496651e-21	4.836647497733776e-17
42.11666666666667	0	0	0	0	0.93	0	0	0	0	0	-2.931843721930668e-41	0	0	0	0	0	0	1.558306088233685e-39	1.693176892034999e-41	0	0	0	0	0	0	85.14407361786347	3.507466759371055	19.90869275734745	-81.13786253279773	17.95232602608935	0	0	62.63140131315573	40.89889935124174	21.8892825256647	-59.87943854352249	-6.65112478467888	0	0
42.13333333333333	0	0	0	0	0.93	0	0	0	0	3.032932328183035e-39	1.391867985773373e-40	0	0	0	0	0	0	0	0	0	0	0	0	0	0	77.89312053295998	7.575022550218399	23.32110248275869	-72.84371908267751	8.805872778698658	0	0	62.75324392899815	40.77034061749652	22.04181253291182	-59.88475991314195	-6.437232289385443	0	0
42.15	0	0	0	0	0.93	0	0	0	0	0	-2.11523419802373e-41	0	0	0	0	0	0	0	-2.11523419802373e-41	0	0	0	0	0	0	66.94672015139976	12.39418541596832	30.68253669761408	-60.1255629360843	-5.324858231116616	0	0	62.84323943348162	40.69760212684145	22.1261028965495	-59.80644031966698	-6.072010218683873	0	0
42.16666666666666	0	0	0	0	0.93	0	0	0	0	0	0	0	0	0	0	0	0	0	0	0	0	0	0	0	0	49.25254459721354	15.67234697988758	45.85836674614418	-39.60403274635159	-27.96993368169179	0	0	62.90067343747192	40.66168346524026	22.14161359814389	-59.73611750568097	-5.918095891068062	0	0
42.18333333333333	0	0	0	0	0.93	0	0	0	0	0	0	0	0	0	0	0	0	0	0	0	0	0	0	0	0	43.82839182239382	15.68858543970104	51.06840143993181	-33.51911017141588	-34.86033460033848	0	0	62.9634105934694	40.65047956738298	22.13104878213667	-59.49444111494426	-5.828844420582429	0	0
42.2	0	0	0	0	0.93	0	0	0	0	3.764655991895593e-40	0	0	0	0	0	0	0	0	0	0	0	0	0	0	0	39.17485969153808	15.4682638046364	56.4196558118629	-28.17516809779463	-41.55265702714932	0	0	63.00717531340883	40.68740413526137	22.09249456097074	-59.06061938605796	-5.745879093970327	0	0
42.21666666666667	0	0	0	0	0.93	0	0	0	0	0	0	0	0	0	0	0	0	0	0	0	0	0	0	0	0	37.86385483780497	15.6164796518556	58.94315769532084	-26.46943198618834	-44.47618311530441	0	0	63.06454008093261	40.71387448571649	22.06829594252036	-58.76298081404004	-5.564991285384377	0	0
